<?xml version="1.0" encoding="utf-8"?>
<svg width="1120" height="600" viewBox="0 0 112 60" fill="none" xmlns="http://www.w3.org/2000/svg">
    <rect width="112" height="60" rx="5" fill="black"/>
    <path d="M16.917 19.073C17.3277 19.1463 17.676 19.3627 17.962 19.722C18.248 20.0813 18.391 20.4883 18.391 20.943C18.391 21.3317 18.2883 21.6837 18.083 21.999C17.885 22.307 17.5953 22.5527 17.214 22.736C16.8327 22.912 16.389 23 15.883 23H12.825V15.355H15.74C16.2607 15.355 16.708 15.443 17.082 15.619C17.456 15.795 17.7383 16.0333 17.929 16.334C18.1197 16.6273 18.215 16.9573 18.215 17.324C18.215 17.764 18.0977 18.1307 17.863 18.424C17.6283 18.7173 17.313 18.9337 16.917 19.073ZM14.079 18.567H15.63C16.0407 18.567 16.3597 18.4753 16.587 18.292C16.8217 18.1013 16.939 17.83 16.939 17.478C16.939 17.1333 16.8217 16.8657 16.587 16.675C16.3597 16.477 16.0407 16.378 15.63 16.378H14.079V18.567ZM15.773 21.977C16.1983 21.977 16.532 21.8743 16.774 21.669C17.016 21.4637 17.137 21.1777 17.137 20.811C17.137 20.437 17.0087 20.14 16.752 19.92C16.4953 19.7 16.1543 19.59 15.729 19.59H14.079V21.977H15.773ZM25.2427 16.939V23H23.9887V22.285C23.7907 22.5343 23.5304 22.7323 23.2077 22.879C22.8924 23.0183 22.555 23.088 22.1957 23.088C21.719 23.088 21.29 22.989 20.9087 22.791C20.5347 22.593 20.2377 22.2997 20.0177 21.911C19.805 21.5223 19.6987 21.053 19.6987 20.503V16.939H20.9417V20.316C20.9417 20.8587 21.0774 21.2767 21.3487 21.57C21.62 21.856 21.9904 21.999 22.4597 21.999C22.929 21.999 23.2994 21.856 23.5707 21.57C23.8494 21.2767 23.9887 20.8587 23.9887 20.316V16.939H25.2427ZM27.5353 16.136C27.3079 16.136 27.1173 16.059 26.9633 15.905C26.8093 15.751 26.7323 15.5603 26.7323 15.333C26.7323 15.1057 26.8093 14.915 26.9633 14.761C27.1173 14.607 27.3079 14.53 27.5353 14.53C27.7553 14.53 27.9423 14.607 28.0963 14.761C28.2503 14.915 28.3273 15.1057 28.3273 15.333C28.3273 15.5603 28.2503 15.751 28.0963 15.905C27.9423 16.059 27.7553 16.136 27.5353 16.136ZM28.1513 16.939V23H26.8973V16.939H28.1513ZM31.0517 14.86V23H29.7977V14.86H31.0517ZM34.161 17.962V21.317C34.161 21.5443 34.2124 21.7093 34.315 21.812C34.425 21.9073 34.6084 21.955 34.865 21.955H35.635V23H34.645C34.0804 23 33.6477 22.868 33.347 22.604C33.0464 22.34 32.896 21.911 32.896 21.317V17.962H32.181V16.939H32.896V15.432H34.161V16.939H35.635V17.962H34.161ZM47.7882 16.939L45.9072 23H44.5872L43.3662 18.523L42.1452 23H40.8252L38.9332 16.939H40.2092L41.4742 21.812L42.7612 16.939H44.0702L45.3022 21.79L46.5562 16.939H47.7882ZM49.3634 16.136C49.1361 16.136 48.9454 16.059 48.7914 15.905C48.6374 15.751 48.5604 15.5603 48.5604 15.333C48.5604 15.1057 48.6374 14.915 48.7914 14.761C48.9454 14.607 49.1361 14.53 49.3634 14.53C49.5834 14.53 49.7704 14.607 49.9244 14.761C50.0784 14.915 50.1554 15.1057 50.1554 15.333C50.1554 15.5603 50.0784 15.751 49.9244 15.905C49.7704 16.059 49.5834 16.136 49.3634 16.136ZM49.9794 16.939V23H48.7254V16.939H49.9794ZM53.0888 17.962V21.317C53.0888 21.5443 53.1401 21.7093 53.2428 21.812C53.3528 21.9073 53.5361 21.955 53.7928 21.955H54.5628V23H53.5728C53.0081 23 52.5754 22.868 52.2748 22.604C51.9741 22.34 51.8238 21.911 51.8238 21.317V17.962H51.1088V16.939H51.8238V15.432H53.0888V16.939H54.5628V17.962H53.0888ZM58.8536 16.84C59.3156 16.84 59.7262 16.939 60.0856 17.137C60.4522 17.335 60.7382 17.6283 60.9436 18.017C61.1562 18.4057 61.2626 18.875 61.2626 19.425V23H60.0196V19.612C60.0196 19.0693 59.8839 18.655 59.6126 18.369C59.3412 18.0757 58.9709 17.929 58.5016 17.929C58.0322 17.929 57.6582 18.0757 57.3796 18.369C57.1082 18.655 56.9726 19.0693 56.9726 19.612V23H55.7186V14.86H56.9726V17.643C57.1852 17.3863 57.4529 17.1883 57.7756 17.049C58.1056 16.9097 58.4649 16.84 58.8536 16.84Z" fill="white"/>
    <path d="M36.9086 35.5255C37.7316 35.5255 38.4331 35.7386 39.0132 36.1649C39.5933 36.5911 39.9921 37.1561 40.2099 37.8598V35.6288H41.2368V43.75H40.2099V41.519C39.9921 42.2233 39.5933 42.7886 39.0132 43.2149C38.4331 43.6411 37.7316 43.8543 36.9086 43.8543C36.1748 43.8543 35.5179 43.6857 34.9378 43.3486C34.3578 43.0116 33.9066 42.5281 33.5843 41.8982C33.262 41.2683 33.1008 40.5321 33.1008 39.6894C33.1008 38.8369 33.262 38.0957 33.5843 37.4658C33.9066 36.8366 34.3554 36.3559 34.9305 36.0237C35.5055 35.6915 36.165 35.5255 36.9086 35.5255ZM37.1762 36.4472C36.264 36.4472 35.5327 36.7372 34.9821 37.3173C34.4322 37.8973 34.1573 38.688 34.1573 39.6894C34.1573 40.6908 34.4322 41.4815 34.9821 42.0615C35.5327 42.6416 36.264 42.9316 37.1762 42.9316C37.7513 42.9316 38.2693 42.7978 38.7299 42.5303C39.1913 42.2627 39.5532 41.8835 39.8159 41.3926C40.0786 40.9018 40.2099 40.3341 40.2099 39.6894C40.2099 39.0447 40.0786 38.4773 39.8159 37.9871C39.5532 37.4963 39.1913 37.1168 38.7299 36.8485C38.2693 36.581 37.7513 36.4472 37.1762 36.4472ZM47.84 35.5255C48.5836 35.5255 49.2405 35.6915 49.8107 36.0237C50.3809 36.3559 50.8272 36.8366 51.1495 37.4658C51.4718 38.0957 51.633 38.8369 51.633 39.6894C51.633 40.5321 51.4718 41.2683 51.1495 41.8982C50.8272 42.5281 50.3785 43.0116 49.8034 43.3486C49.2283 43.6857 48.5737 43.8543 47.84 43.8543C47.0071 43.8543 46.3031 43.6411 45.728 43.2149C45.1529 42.7886 44.7564 42.2233 44.5387 41.519V47.5873H43.497V35.6288H44.5387V37.8598C44.7564 37.1561 45.1529 36.5911 45.728 36.1649C46.3031 35.7386 47.0071 35.5255 47.84 35.5255ZM47.5576 36.4472C46.9825 36.4472 46.4643 36.581 46.003 36.8485C45.5423 37.1168 45.183 37.4963 44.9253 37.9871C44.6676 38.4773 44.5387 39.0447 44.5387 39.6894C44.5387 40.3341 44.6676 40.9018 44.9253 41.3926C45.183 41.8835 45.5423 42.2627 46.003 42.5303C46.4643 42.7978 46.9825 42.9316 47.5576 42.9316C48.4796 42.9316 49.2135 42.6416 49.7591 42.0615C50.3041 41.4815 50.5765 40.6908 50.5765 39.6894C50.5765 38.688 50.3041 37.8973 49.7591 37.3173C49.2135 36.7372 48.4796 36.4472 47.5576 36.4472ZM57.8496 35.5255C58.5932 35.5255 59.2501 35.6915 59.8203 36.0237C60.3905 36.3559 60.8368 36.8366 61.1591 37.4658C61.4814 38.0957 61.6426 38.8369 61.6426 39.6894C61.6426 40.5321 61.4814 41.2683 61.1591 41.8982C60.8368 42.5281 60.3881 43.0116 59.813 43.3486C59.2379 43.6857 58.5833 43.8543 57.8496 43.8543C57.0167 43.8543 56.3127 43.6411 55.7376 43.2149C55.1625 42.7886 54.766 42.2233 54.5483 41.519V47.5873H53.5066V35.6288H54.5483V37.8598C54.766 37.1561 55.1625 36.5911 55.7376 36.1649C56.3127 35.7386 57.0167 35.5255 57.8496 35.5255ZM57.5672 36.4472C56.9921 36.4472 56.4739 36.581 56.0126 36.8485C55.5519 37.1168 55.1926 37.4963 54.9349 37.9871C54.6772 38.4773 54.5483 39.0447 54.5483 39.6894C54.5483 40.3341 54.6772 40.9018 54.9349 41.3926C55.1926 41.8835 55.5519 42.2627 56.0126 42.5303C56.4739 42.7978 56.9921 42.9316 57.5672 42.9316C58.4892 42.9316 59.2231 42.6416 59.7687 42.0615C60.3137 41.4815 60.5862 40.6908 60.5862 39.6894C60.5862 38.688 60.3137 37.8973 59.7687 37.3173C59.2231 36.7372 58.4892 36.4472 57.5672 36.4472ZM73.169 35.5107H75.1324L72.9162 43.75H70.5957L68.8261 37.7564L67.0112 43.75H64.6917L62.4902 35.5107H64.5874L65.9262 41.8761L67.7549 35.5107H69.9711L71.8155 41.8761L73.169 35.5107ZM78.2709 37.0866C78.5777 36.5613 78.9841 36.1473 79.4897 35.8447C79.9958 35.5427 80.5612 35.3917 81.1855 35.3917V37.6374H80.5756C79.0391 37.6374 78.2709 38.3513 78.2709 39.7789V43.75H76.1737V35.5107H78.2709V37.0866ZM82.1079 33.145C82.1079 32.808 82.2269 32.533 82.465 32.3202C82.703 32.1068 83.0152 32 83.4015 32C83.7884 32 84.1008 32.1068 84.3389 32.3202C84.5769 32.533 84.6959 32.808 84.6959 33.145C84.6959 33.4723 84.5769 33.7426 84.3389 33.956C84.1008 34.1694 83.7884 34.2762 83.4015 34.2762C83.0152 34.2762 82.703 34.1694 82.465 33.956C82.2269 33.7426 82.1079 33.4723 82.1079 33.145ZM82.3459 35.5107H84.4431V43.75H82.3459V35.5107ZM89.9314 41.9499H90.7488V43.75H89.6481C88.726 43.75 88.0196 43.527 87.5288 43.0811C87.0379 42.6345 86.7925 41.8909 86.7925 40.8501V37.2804H85.6475V35.5107H86.7925V33.4726H88.8897V35.5107H90.7341V37.2804H88.8897V40.8796C88.8897 41.2764 88.969 41.5541 89.1277 41.7128C89.2864 41.8708 89.5543 41.9499 89.9314 41.9499ZM99.9999 39.3176C99.9999 39.5261 99.9753 39.7641 99.9261 40.0317H93.8873C93.9169 40.7655 94.1152 41.3059 94.4824 41.6528C94.849 41.9997 95.3051 42.1732 95.8507 42.1732C96.3366 42.1732 96.7405 42.0542 97.0622 41.8161C97.3845 41.5787 97.5902 41.2567 97.6794 40.8501H99.8957C99.7868 41.4252 99.5539 41.9407 99.1972 42.3965C98.8398 42.8529 98.3812 43.21 97.8215 43.4677C97.2611 43.7254 96.639 43.8543 95.955 43.8543C95.1516 43.8543 94.4375 43.6833 93.8126 43.3413C93.1882 42.9992 92.7026 42.5109 92.3557 41.8761C92.0082 41.2413 91.8344 40.4928 91.8344 39.6304C91.8344 38.7674 92.0082 38.0164 92.3557 37.3772C92.7026 36.7376 93.1882 36.2491 93.8126 35.9121C94.4375 35.575 95.1516 35.4064 95.955 35.4064C96.7675 35.4064 97.4789 35.575 98.0891 35.9121C98.6986 36.2491 99.1695 36.7126 99.5017 37.3025C99.8338 37.8923 99.9999 38.564 99.9999 39.3176ZM97.888 39.11C97.918 38.4352 97.7422 37.9244 97.3602 37.5774C96.9782 37.2305 96.5098 37.0571 95.955 37.0571C95.3897 37.0571 94.9136 37.2305 94.5267 37.5774C94.1398 37.9244 93.9266 38.4352 93.8873 39.11H97.888Z" fill="white"/>
    <path d="M30.0077 39.9268C30.0077 43.239 27.3226 45.924 24.0104 45.924C22.4719 45.924 21.0687 45.3447 20.0071 44.3923C21.7078 43.6267 22.8919 41.9171 22.8919 39.931C22.8919 37.9424 21.7049 36.2311 20.0007 35.4669C21.0632 34.5112 22.4688 33.9295 24.0104 33.9295C27.3226 33.9295 30.0077 36.6146 30.0077 39.9268Z" fill="white"/>
    <path d="M21.6131 35.1397C20.9845 34.6646 20.2685 34.3181 19.5059 34.1199C18.7433 33.9217 17.9491 33.8757 17.1688 33.9845C16.3884 34.0934 15.6371 34.3549 14.9579 34.7543C14.2786 35.1536 13.6847 35.6828 13.2101 36.3118C12.7355 36.9407 12.3895 37.657 12.1918 38.4197C11.9941 39.1825 11.9487 39.9767 12.0581 40.757C12.1675 41.5373 12.4296 42.2884 12.8294 42.9673C13.2292 43.6463 13.7588 44.2398 14.3881 44.714C15.6578 45.6721 17.256 46.0866 18.8312 45.8663C20.4065 45.646 21.8297 44.8089 22.7878 43.5393C23.7459 42.2697 24.1604 40.6714 23.9401 39.0962C23.7198 37.5209 22.8828 36.0977 21.6131 35.1396V35.1397ZM20.9462 36.0234C21.9814 36.8046 22.6639 37.9651 22.8435 39.2495C23.0231 40.5339 22.6852 41.8371 21.904 42.8724C21.1227 43.9076 19.9623 44.5901 18.6779 44.7697C17.3934 44.9494 16.0902 44.6114 15.055 43.8302C14.0198 43.049 13.3373 41.8885 13.1576 40.6041C12.978 39.3196 13.316 38.0165 14.0972 36.9812C14.8784 35.946 16.0389 35.2635 17.3233 35.0838C18.6077 34.9042 19.9109 35.2422 20.9462 36.0234Z" fill="white"/>
    <path d="M18.1614 37.8518C18.1542 37.8696 18.0625 38.2297 17.9638 38.6569C17.8613 39.084 17.6989 39.7583 17.6073 40.1573C17.4306 40.888 17.3247 41.3682 17.3247 41.4317C17.3247 41.4493 17.4342 41.4636 17.5682 41.4636H17.8119L17.9212 40.9762C17.9849 40.7115 18.1262 40.1042 18.2391 39.6277C18.3521 39.151 18.4897 38.5721 18.5427 38.339C18.5956 38.1059 18.6486 37.8943 18.6593 37.8696C18.6699 37.8378 18.6097 37.8273 18.4262 37.8273C18.2885 37.8273 18.1683 37.8378 18.1614 37.8518ZM16.2654 39.3805L15.9407 39.7336L16.0361 39.8465C16.0889 39.91 16.2338 40.069 16.3573 40.1996L16.5833 40.4396H17.2258L16.9223 40.1112C16.7562 39.9349 16.6185 39.7653 16.6185 39.7442C16.6185 39.7195 16.7457 39.5607 16.9011 39.3912C17.0563 39.2183 17.1835 39.0698 17.1835 39.0522C17.1835 39.0381 17.0493 39.0275 16.8869 39.0275H16.5939L16.2654 39.3805ZM18.7368 39.0486C18.7368 39.0593 18.7968 39.1263 18.8708 39.2005C19.1464 39.4758 19.3406 39.709 19.33 39.7547C19.3229 39.7795 19.1887 39.9453 19.0264 40.1183L18.7335 40.4396H19.0616L19.39 40.4361L19.69 40.1078C19.856 39.9244 19.9901 39.7617 19.9901 39.7406C19.9901 39.7231 19.8489 39.5571 19.6723 39.3701L19.3548 39.0275H19.0474C18.8744 39.0275 18.7368 39.0381 18.7368 39.0486Z" fill="white"/>
</svg>
